<svg width="259" height="259" viewBox="0 0 259 259" fill="none" xmlns="http://www.w3.org/2000/svg">
<circle cx="130" cy="130" r="81" fill="#F3F6FA"/>
<path d="M151.543 195.243C149.327 185.335 146.549 175.567 143.209 165.985C143.266 165.888 143.315 165.778 143.342 165.645C145.935 152.999 155.401 143.761 168.113 141.521C177.043 144.434 185.747 148.013 194.153 152.23C172.93 157.633 156.661 174.187 151.543 195.243ZM108.838 195.243C109.342 188.739 110.318 182.289 111.755 175.944C111.919 175.867 112.072 175.751 112.199 175.576C118.48 166.865 129.306 162.751 139.77 164.962C143.405 175.112 146.411 185.476 148.759 196C137.396 185.662 120.461 185.414 108.838 195.243ZM71.6879 152.977C77.4258 150.509 83.2316 148.206 89.1025 146.079C100.616 149.528 109.276 158.749 109.944 171.016C108.421 176.859 107.285 182.8 106.545 188.799C102.468 171.421 89.2482 157.592 71.6879 152.977ZM87.9324 89.9042C92.5235 94.436 97.0563 99.0251 101.529 103.672C101.541 103.796 101.57 103.924 101.629 104.054C107.453 116.736 104.887 133.253 93.345 141.493C87.0478 143.654 80.8205 146.011 74.67 148.557C85.4485 131.004 90.058 110.406 87.9324 89.9042ZM113.137 68.4413C114.255 73.078 115.374 77.7157 116.494 82.3524C116.49 82.3631 116.491 82.3777 116.486 82.3874C116.36 82.6039 116.314 82.8506 116.381 83.0924C116.16 90.7868 114.061 102.883 103.579 101.378C103.505 101.367 103.443 101.387 103.373 101.39C98.6604 96.4975 93.882 91.6705 89.0375 86.9075C100.242 86.0666 109.77 78.9926 113.137 68.4413ZM151.826 57.323C148.333 65.5166 145.14 73.8306 142.264 82.2524C135.509 87.7407 126.657 88.0437 119.678 83.1331C118.195 76.9874 116.711 70.8417 115.228 64.6961C127.941 68.9909 142.07 66.3662 151.826 57.323ZM190.815 99.03C183.901 102.324 177.047 105.745 170.26 109.287C158.029 106.854 148.038 98.2289 143.887 86.5686C147.057 76.9709 150.632 67.5101 154.608 58.2066C158.632 77.3263 172.12 92.9154 190.815 99.03ZM135.956 147.489C136.067 147.334 136.154 147.155 136.171 146.923C136.561 141.49 140.513 137.012 145.731 135.72C151.915 136.92 158.026 138.424 164.04 140.235C153.26 143.336 145.053 151.548 141.908 162.373C140.078 157.356 138.092 152.394 135.956 147.489ZM120.184 150.674C120.253 150.625 120.319 150.566 120.383 150.492C123.495 146.89 128.469 145.679 132.801 147.513C134.994 152.477 137.036 157.501 138.913 162.584C129.212 161.009 119.542 164.344 112.866 171.402C114.731 164.32 117.176 157.386 120.184 150.674ZM113.177 138.413C113.251 138.515 113.343 138.612 113.464 138.694C116.883 141.011 118.971 144.782 117.792 148.884C115.293 154.384 113.16 160.033 111.412 165.797C109.106 156.063 101.891 148.567 92.439 144.894C99.2722 142.503 106.187 140.339 113.177 138.413ZM114.584 117.586C114.6 117.647 114.617 117.706 114.644 117.768C117.102 123.364 116.859 129.85 113.949 135.187C108.834 136.568 103.756 138.072 98.7216 139.702C106.524 131.356 108.564 118.656 105.244 107.559C108.388 110.873 111.501 114.215 114.584 117.586ZM118.172 89.3118C119.646 95.4148 121.118 101.517 122.591 107.621C121.732 110.713 119.979 115.896 116.197 115.039C112.671 111.19 109.114 107.37 105.508 103.597C109.063 103.397 112.265 101.658 114.599 98.7484C116.787 96.0217 117.735 92.7173 118.172 89.3118ZM141.11 85.7025C138.965 92.1987 137.005 98.7542 135.232 105.364C135.227 105.372 135.221 105.378 135.216 105.385C133.035 109.107 128.036 109.499 125.441 105.94C125.344 105.805 125.229 105.705 125.107 105.63C123.536 99.1232 121.965 92.6153 120.395 86.1074C126.972 89.7527 134.614 89.6226 141.11 85.7025ZM147.496 121.781C147.377 121.558 147.178 121.369 146.878 121.267C141.917 119.589 138.194 115.523 136.878 110.572C138.655 103.59 140.634 96.6655 142.825 89.81C147.363 100.107 156.368 107.917 167.316 110.849C160.645 114.375 154.038 118.019 147.496 121.781ZM147.1 133.053C147.084 130.211 147.821 127.536 149.342 125.045C149.562 124.683 149.544 124.332 149.393 124.049C155.335 120.636 161.335 117.331 167.384 114.114C164.029 121.664 163.711 130.128 166.607 138.001C160.206 136.012 153.695 134.366 147.1 133.053ZM130.173 135.091C130.481 135.16 130.824 135.12 131.178 134.9C131.828 134.497 132.486 134.111 133.138 133.711C135.986 134.064 138.822 134.486 141.642 134.969C138.126 136.892 135.526 140.21 134.472 144.114C133.1 141.082 131.661 138.076 130.173 135.091ZM127.606 136.457C128.992 139.234 130.332 142.031 131.615 144.853C128.461 144.11 125.139 144.564 122.326 146.119C123.947 142.836 125.709 139.613 127.606 136.457ZM124.823 135.44C123.114 138.306 121.516 141.227 120.027 144.2C119.41 141.693 117.855 139.453 115.764 137.716C118.771 136.915 121.791 136.155 124.823 135.44ZM127.323 131.872C123.779 132.669 120.249 133.52 116.737 134.435C118.51 130.309 118.908 125.742 118.014 121.361C121.15 124.835 124.253 128.34 127.323 131.872ZM127.398 127.543C124.369 124.085 121.317 120.646 118.225 117.244C120.679 116.637 122.386 114.114 123.525 111.49C124.816 116.842 126.107 122.192 127.398 127.543ZM130.189 126.693C128.792 120.902 127.394 115.11 125.997 109.32C128.522 110.892 131.641 110.957 134.15 109.485C132.693 115.185 131.366 120.92 130.189 126.693ZM132.47 130.708C132.437 130.704 132.402 130.698 132.369 130.695C133.439 125.188 134.628 119.71 135.952 114.267C137.851 118.201 141.16 121.338 145.367 123.02C141.039 125.532 136.739 128.093 132.47 130.708ZM137.074 131.321C140.205 129.428 143.352 127.563 146.514 125.725C145.5 127.901 144.957 130.227 144.92 132.629C142.315 132.142 139.701 131.701 137.074 131.321ZM192.466 148.137C184.935 144.528 177.173 141.44 169.241 138.849C169.227 138.783 169.209 138.717 169.18 138.647C165.577 129.941 166.13 120.464 170.73 112.325C178.49 108.258 186.341 104.364 194.267 100.622C185.982 115.432 185.26 132.788 192.466 148.137ZM217.343 162.458C210.406 157.734 203.182 153.509 195.735 149.764C186.946 133.483 187.83 114.637 197.753 99.0348C197.763 99.0174 197.768 99.0008 197.779 98.9834C202.77 96.6636 207.782 94.3855 212.835 92.1948C214.551 91.451 213.07 88.9399 211.366 89.6789C205.461 92.2385 199.607 94.9079 193.787 97.6433C173.683 92.0482 159.173 75.2075 156.154 54.6099C158.738 48.7419 161.482 42.939 164.384 37.2079C165.229 35.5387 162.716 34.0628 161.868 35.7368C159.243 40.9212 156.757 46.1667 154.386 51.4628C154.244 51.521 154.105 51.6191 153.979 51.7783C144.518 63.8027 128.677 67.4081 114.612 62.1412C113.536 57.6803 112.459 53.2194 111.383 48.7584C110.944 46.9368 108.134 47.7087 108.574 49.5333C109.717 54.2691 110.86 59.0038 112.002 63.7396C110.267 76.4077 99.3809 84.7091 86.8953 84.8023C84.1929 82.165 81.477 79.5422 78.7338 76.9457C77.3734 75.6571 75.3089 77.7138 76.6742 79.0052C79.2368 81.4319 81.779 83.8798 84.3066 86.3424C84.4134 86.5638 84.5823 86.7493 84.83 86.8561C85.0465 87.0668 85.2611 87.2795 85.4767 87.4911C88.4538 109.409 83.2714 131.636 71.1005 150.06C61.0852 154.346 51.2767 159.129 41.7179 164.418C40.0758 165.325 41.544 167.842 43.187 166.933C51.3904 162.395 59.7743 158.232 68.3155 154.441C89.3025 158.696 104.611 176.27 105.626 197.826C105.631 197.962 105.672 198.074 105.715 198.183C105.711 198.257 105.706 198.333 105.702 198.408C105.641 198.586 105.638 198.769 105.673 198.942C105.345 205.728 105.518 212.556 106.217 219.367C106.405 221.213 109.321 221.233 109.13 219.367C108.411 212.36 108.254 205.342 108.632 198.377C120.097 187.168 138.091 187.511 149.156 199.457C149.284 199.594 149.423 199.684 149.565 199.737C151.197 207.598 152.475 215.539 153.373 223.542C153.58 225.384 156.496 225.405 156.287 223.542C155.421 215.837 154.219 208.192 152.691 200.623C156.343 177.457 173.401 159.103 196.364 153.937C196.607 153.882 196.785 153.77 196.912 153.627C203.43 157.03 209.765 160.813 215.873 164.974C217.427 166.032 218.886 163.509 217.343 162.458Z" fill="black"/>
<path d="M83.4041 63.5302C84.7108 64.3762 86.3829 64.0419 87.3378 62.8308C88.2622 61.6573 88.2333 59.967 87.1594 58.8941C86.1705 57.9082 84.4865 57.6865 83.3208 58.4865C83.0575 58.6673 82.8604 58.9095 82.6989 59.1705C82.495 59.3939 82.3132 59.648 82.1892 59.9448C81.6641 61.2121 82.2843 62.8053 83.4041 63.5302Z" fill="#1CA3FF"/>
<path d="M92.2859 61.3909C93.6919 61.3909 93.6939 59.2061 92.2859 59.2061C90.8808 59.2061 90.8779 61.3909 92.2859 61.3909Z" fill="black"/>
<path d="M196.875 176.718C196.815 176.778 196.757 176.839 196.699 176.9C195.725 177.915 197.268 179.463 198.244 178.445C198.303 178.384 198.36 178.323 198.42 178.262C199.394 177.246 197.851 175.7 196.875 176.718Z" fill="black"/>
<path d="M195.598 181.485C194.191 181.485 194.19 183.67 195.598 183.67C197.004 183.67 197.006 181.485 195.598 181.485Z" fill="#1CA3FF"/>
<path d="M177.356 177.491C176.681 177.856 176.327 178.492 176.253 179.17C175.825 180.226 175.944 181.512 176.582 182.511C177.134 183.378 178.128 183.994 179.163 184C180.559 184.01 181.398 182.901 182.308 181.999C182.864 181.447 183.168 180.495 182.903 179.728C182.086 177.375 179.575 176.296 177.356 177.491Z" fill="#1CA3FF"/>
<path d="M173.889 197.584C173.828 197.648 173.766 197.713 173.705 197.777C172.731 198.792 174.274 200.339 175.249 199.322C175.311 199.257 175.372 199.193 175.434 199.129C176.407 198.114 174.865 196.566 173.889 197.584Z" fill="#1CA3FF"/>
<path d="M173.199 63.4491C173.152 63.5817 173.126 63.7161 173.094 63.8522C173.065 63.9779 173.032 64.1035 173.018 64.2327C172.997 64.3985 172.999 64.566 173.002 64.7353C173.006 64.8522 173.004 64.9674 173.019 65.0809C173.037 65.2397 173.08 65.3933 173.122 65.5486C173.157 65.6708 173.188 65.7894 173.239 65.9081C173.31 66.0826 173.409 66.2502 173.516 66.4195C173.545 66.4613 173.557 66.512 173.59 66.5556C173.604 66.573 173.623 66.5835 173.637 66.6027C173.7 66.6882 173.74 66.7825 173.813 66.8663C175.388 68.6656 178.458 68.2415 179.602 66.1716C180.9 63.8191 178.817 60.9883 176.328 61.025C176.065 60.9796 175.792 60.9935 175.529 61.0878C175.427 61.1227 175.343 61.1855 175.246 61.2291C174.511 61.5153 173.916 62.0616 173.522 62.7458C173.512 62.765 173.503 62.7859 173.493 62.8033C173.378 63.0128 173.275 63.2239 173.199 63.4491Z" fill="#1CA3FF"/>
<path d="M185.879 67.7858C185.953 67.712 186.027 67.6373 186.101 67.5635C187.097 66.5681 185.552 65.0232 184.556 66.0185C184.482 66.0933 184.408 66.1671 184.335 66.2409C183.339 67.2362 184.883 68.7811 185.879 67.7858Z" fill="#1CA3FF"/>
<path d="M183.996 86.1057C185.401 86.1057 185.404 83.9209 183.996 83.9209C182.59 83.9209 182.588 86.1057 183.996 86.1057Z" fill="black"/>
<path d="M164.477 66.3518C165.883 66.3518 165.885 64.167 164.477 64.167C163.071 64.167 163.069 66.3518 164.477 66.3518Z" fill="#1CA3FF"/>
</svg>
