<svg width="20" height="20" viewBox="0 0 20 20" fill="none" xmlns="http://www.w3.org/2000/svg">
<path d="M15 6.66683H16.6667C16.8877 6.66683 17.0996 6.75463 17.2559 6.91091C17.4122 7.06719 17.5 7.27915 17.5 7.50016V17.5002C17.5 17.7212 17.4122 17.9331 17.2559 18.0894C17.0996 18.2457 16.8877 18.3335 16.6667 18.3335H3.33333C3.11232 18.3335 2.90036 18.2457 2.74408 18.0894C2.5878 17.9331 2.5 17.7212 2.5 17.5002V7.50016C2.5 7.27915 2.5878 7.06719 2.74408 6.91091C2.90036 6.75463 3.11232 6.66683 3.33333 6.66683H5V5.8335C5 4.50741 5.52678 3.23564 6.46447 2.29796C7.40215 1.36028 8.67392 0.833496 10 0.833496C11.3261 0.833496 12.5979 1.36028 13.5355 2.29796C14.4732 3.23564 15 4.50741 15 5.8335V6.66683ZM4.16667 8.3335V16.6668H15.8333V8.3335H4.16667ZM9.16667 11.6668H10.8333V13.3335H9.16667V11.6668ZM5.83333 11.6668H7.5V13.3335H5.83333V11.6668ZM12.5 11.6668H14.1667V13.3335H12.5V11.6668ZM13.3333 6.66683V5.8335C13.3333 4.94944 12.9821 4.10159 12.357 3.47647C11.7319 2.85135 10.8841 2.50016 10 2.50016C9.11594 2.50016 8.2681 2.85135 7.64298 3.47647C7.01786 4.10159 6.66667 4.94944 6.66667 5.8335V6.66683H13.3333Z" fill="black"/>
</svg>
