<svg width="16" height="16" viewBox="0 0 16 16" fill="none" xmlns="http://www.w3.org/2000/svg">
<path d="M8 1C6.61553 1 5.26215 1.41054 4.11101 2.17971C2.95987 2.94888 2.06266 4.04213 1.53285 5.32122C1.00303 6.6003 0.86441 8.00776 1.13451 9.36563C1.4046 10.7235 2.07129 11.9708 3.05026 12.9497C4.02922 13.9287 5.2765 14.5954 6.63437 14.8655C7.99224 15.1356 9.3997 14.997 10.6788 14.4672C11.9579 13.9373 13.0511 13.0401 13.8203 11.889C14.5895 10.7378 15 9.38447 15 8C14.9978 6.14416 14.2596 4.36495 12.9473 3.05267C11.635 1.74039 9.85584 1.00219 8 1ZM8 13.7273C6.86725 13.7273 5.75994 13.3914 4.8181 12.7621C3.87626 12.1327 3.14218 11.2383 2.70869 10.1917C2.27521 9.14521 2.16179 7.99365 2.38278 6.88266C2.60377 5.77168 3.14924 4.75118 3.95021 3.95021C4.75118 3.14923 5.77168 2.60376 6.88267 2.38277C7.99365 2.16179 9.14521 2.27521 10.1917 2.70869C11.2383 3.14217 12.1327 3.87625 12.7621 4.8181C13.3914 5.75994 13.7273 6.86725 13.7273 8C13.7254 9.5184 13.1214 10.9741 12.0477 12.0477C10.9741 13.1214 9.5184 13.7254 8 13.7273Z" fill="black"/>
<path d="M8.6365 7.7365V4.18177C8.6365 4.013 8.56945 3.85114 8.45011 3.7318C8.33077 3.61246 8.16891 3.54541 8.00013 3.54541C7.83136 3.54541 7.6695 3.61246 7.55016 3.7318C7.43081 3.85114 7.36377 4.013 7.36377 4.18177V7.99995C7.36381 8.16872 7.43087 8.33055 7.55022 8.44986L9.45931 10.359C9.57933 10.4749 9.74008 10.539 9.90693 10.5376C10.0738 10.5361 10.2334 10.4692 10.3514 10.3512C10.4694 10.2332 10.5363 10.0736 10.5377 9.90675C10.5392 9.7399 10.4751 9.57916 10.3591 9.45914L8.6365 7.7365Z" fill="black"/>
</svg>
