<svg width="16" height="16" viewBox="0 0 16 16" fill="none" xmlns="http://www.w3.org/2000/svg">
<g clip-path="url(#clip0)">
<path d="M3.42703 3.20303H4.36453V4.5364H3.42703V3.20303Z" fill="black"/>
<path d="M5.76028 3.20303H6.69778V4.5364H5.76028V3.20303Z" fill="black"/>
<path d="M3.42703 5.86953H4.36453V7.20291H3.42703V5.86953Z" fill="black"/>
<path d="M5.76028 5.86953H6.69778V7.20291H5.76028V5.86953Z" fill="black"/>
<path d="M3.42703 8.53652H4.36453V9.8699H3.42703V8.53652Z" fill="black"/>
<path d="M5.76028 8.53652H6.69778V9.8699H5.76028V8.53652Z" fill="black"/>
<path d="M3.42703 11.203H4.36453V12.5364H3.42703V11.203Z" fill="black"/>
<path d="M5.76028 11.203H6.69778V12.5364H5.76028V11.203Z" fill="black"/>
<path d="M10.2394 5.86953H11.1769V7.20291H10.2394V5.86953Z" fill="black"/>
<path d="M10.2394 8.53652H11.1769V9.8699H10.2394V8.53652Z" fill="black"/>
<path d="M13.3361 14.2316C14.2394 14.0191 14.9142 13.2068 14.9142 12.2395C14.9142 11.2711 14.2381 10.4583 13.3333 10.2467V3.19265H9.03604V1.33413H8.27505V-9.76548e-05H1.85464V1.33413H1.09365V15.9999L14.8958 15.9947V15.0572H13.3361V14.2316ZM2.79214 0.937402H7.33755V2.27163H8.09854V15.0573H2.03115V2.27163H2.79214V0.937402ZM9.03604 4.13015H12.3958V10.2481C11.4938 10.4617 10.8205 11.2731 10.8205 12.2395C10.8205 13.2058 11.4938 14.0174 12.3958 14.231V15.0572H9.03604V4.13015ZM13.9767 12.2395C13.9767 12.8512 13.479 13.3489 12.8673 13.3489C12.2555 13.3489 11.758 12.8512 11.758 12.2395C11.758 11.6278 12.2555 11.1302 12.8673 11.1302C13.479 11.1302 13.9767 11.6278 13.9767 12.2395Z" fill="black"/>
<path fill-rule="evenodd" clip-rule="evenodd" d="M1.75464 -0.100098H8.37505V1.23413H9.13604V3.09265H13.4333V10.1689C14.3431 10.4179 15.0142 11.2513 15.0142 12.2395C15.0142 13.2267 14.3445 14.0594 13.4361 14.3093V14.9572H14.9958V16.0946L0.993652 16.0999V1.23413H1.75464V-0.100098ZM1.95464 0.0999023V1.43413H1.19365V15.8999L14.7958 15.8947V15.1572H13.2361V14.1524L13.3132 14.1342C14.1725 13.9321 14.8142 13.1592 14.8142 12.2395C14.8142 11.3188 14.1712 10.5453 13.3105 10.3441L13.2333 10.326V3.29265H8.93604V1.43413H8.17505V0.0999023H1.95464ZM2.69214 0.837402H7.43755V2.17163H8.19853V15.1573H1.93115V2.17163H2.69214V0.837402ZM2.89214 1.0374V2.37163H2.13115V14.9573H7.99854V2.37163H7.23755V1.0374H2.89214ZM3.32703 3.10303H4.46453V4.6364H3.32703V3.10303ZM3.52703 3.30303V4.4364H4.26453V3.30303H3.52703ZM5.66028 3.10303H6.79778V4.6364H5.66028V3.10303ZM5.86028 3.30303V4.4364H6.59778V3.30303H5.86028ZM8.93604 4.03015H12.4958V10.3272L12.4188 10.3454C11.5608 10.5486 10.9205 11.3206 10.9205 12.2395C10.9205 13.1583 11.5608 13.9305 12.4188 14.1337L12.4958 14.1519V15.1572H8.93604V4.03015ZM9.13604 4.23015V14.9572H12.2958V14.3085C11.3888 14.0577 10.7205 13.2257 10.7205 12.2395C10.7205 11.2533 11.3888 10.4214 12.2958 10.1705V4.23015H9.13604ZM3.32703 5.76953H4.46453V7.30291H3.32703V5.76953ZM3.52703 5.96953V7.10291H4.26453V5.96953H3.52703ZM5.66028 5.76953H6.79778V7.30291H5.66028V5.76953ZM5.86028 5.96953V7.10291H6.59778V5.96953H5.86028ZM10.1394 5.76953H11.2769V7.30291H10.1394V5.76953ZM10.3394 5.96953V7.10291H11.0769V5.96953H10.3394ZM3.32703 8.43652H4.46453V9.9699H3.32703V8.43652ZM3.52703 8.63652V9.7699H4.26453V8.63652H3.52703ZM5.66028 8.43652H6.79778V9.9699H5.66028V8.43652ZM5.86028 8.63652V9.7699H6.59778V8.63652H5.86028ZM10.1394 8.43652H11.2769V9.9699H10.1394V8.43652ZM10.3394 8.63652V9.7699H11.0769V8.63652H10.3394ZM12.8673 11.2302C12.3108 11.2302 11.858 11.6831 11.858 12.2395C11.858 12.796 12.3108 13.2489 12.8673 13.2489C13.4238 13.2489 13.8767 12.796 13.8767 12.2395C13.8767 11.6831 13.4238 11.2302 12.8673 11.2302ZM11.658 12.2395C11.658 11.5726 12.2003 11.0302 12.8673 11.0302C13.5343 11.0302 14.0767 11.5726 14.0767 12.2395C14.0767 12.9064 13.5343 13.4489 12.8673 13.4489C12.2003 13.4489 11.658 12.9064 11.658 12.2395ZM3.32703 11.103H4.46453V12.6364H3.32703V11.103ZM3.52703 11.303V12.4364H4.26453V11.303H3.52703ZM5.66028 11.103H6.79778V12.6364H5.66028V11.103ZM5.86028 11.303V12.4364H6.59778V11.303H5.86028Z" fill="black"/>
</g>
<defs>
<clipPath id="clip0">
<rect width="16" height="16" fill="white"/>
</clipPath>
</defs>
</svg>
