<svg width="18" height="18" viewBox="0 0 18 18" fill="none" xmlns="http://www.w3.org/2000/svg">
<g clip-path="url(#clip0)">
<path d="M12.7273 6.68457C12.8096 6.60772 12.8761 6.5154 12.9228 6.41287C12.9695 6.31033 12.9955 6.1996 12.9995 6.08698C13.0034 5.97437 12.9852 5.86208 12.9457 5.75653C12.9063 5.65098 12.8465 5.55423 12.7697 5.47181C12.6929 5.38939 12.6007 5.32291 12.4982 5.27617C12.3958 5.22943 12.2851 5.20335 12.1726 5.1994C12.0601 5.19546 11.9479 5.21374 11.8424 5.25319C11.737 5.29264 11.6403 5.3525 11.5579 5.42934L9.0495 7.76991L6.71081 5.2586C6.55432 5.0982 6.34132 5.00546 6.11739 5.00023C5.89345 4.99501 5.67636 5.07771 5.51257 5.23064C5.34879 5.38357 5.25132 5.59458 5.24101 5.81852C5.23071 6.04246 5.3084 6.26154 5.45745 6.42889L7.79614 8.93934L5.28684 11.2799C5.20158 11.356 5.13237 11.4483 5.08326 11.5515C5.03416 11.6547 5.00616 11.7667 5.00091 11.8809C4.99565 11.9951 5.01325 12.1092 5.05267 12.2165C5.09209 12.3238 5.15253 12.4221 5.23045 12.5057C5.30837 12.5893 5.40219 12.6564 5.5064 12.7032C5.61061 12.75 5.72312 12.7755 5.83731 12.7781C5.95149 12.7808 6.06506 12.7606 6.17134 12.7187C6.27762 12.6768 6.37447 12.6141 6.45619 12.5343L8.96463 10.1946L11.3033 12.705C11.3788 12.7919 11.4711 12.8627 11.5745 12.9132C11.6779 12.9637 11.7905 12.9928 11.9054 12.9988C12.0203 13.0048 12.1353 12.9877 12.2434 12.9483C12.3515 12.9089 12.4507 12.8481 12.5348 12.7696C12.619 12.691 12.6865 12.5964 12.7333 12.4911C12.7802 12.3859 12.8053 12.2724 12.8074 12.1572C12.8094 12.0421 12.7883 11.9277 12.7452 11.8209C12.7021 11.7141 12.638 11.6171 12.5567 11.5356L10.2188 9.02514L12.7273 6.68457Z" fill="#1DADFF"/>
<path fill-rule="evenodd" clip-rule="evenodd" d="M0 9C0 4.02955 4.02955 0 9 0C13.9705 0 18 4.02955 18 9C18 13.9705 13.9705 18 9 18C4.02955 18 0 13.9705 0 9ZM9 16.3636C8.03299 16.3636 7.07546 16.1732 6.18206 15.8031C5.28866 15.4331 4.4769 14.8907 3.79312 14.2069C3.10935 13.5231 2.56694 12.7113 2.19689 11.8179C1.82683 10.9245 1.63636 9.96701 1.63636 9C1.63636 8.03299 1.82683 7.07546 2.19689 6.18206C2.56694 5.28866 3.10935 4.4769 3.79312 3.79312C4.4769 3.10935 5.28866 2.56694 6.18206 2.19689C7.07546 1.82683 8.03299 1.63636 9 1.63636C10.953 1.63636 12.8259 2.41217 14.2069 3.79312C15.5878 5.17407 16.3636 7.04704 16.3636 9C16.3636 10.953 15.5878 12.8259 14.2069 14.2069C12.8259 15.5878 10.953 16.3636 9 16.3636Z" fill="#1DADFF"/>
</g>
<defs>
<clipPath id="clip0">
<rect width="18" height="18" fill="white"/>
</clipPath>
</defs>
</svg>
