<svg width="23" height="23" viewBox="0 0 23 23" fill="none" xmlns="http://www.w3.org/2000/svg">
<path d="M15.1277 7.2324L6.74838 10.9317C6.27805 11.1473 6.43618 11.8602 6.95368 11.8602H10.9607C11.0084 11.8602 11.0541 11.8792 11.0878 11.9129C11.1215 11.9466 11.1404 11.9923 11.1404 12.0399V16.0461C11.1404 16.5636 11.8591 16.7199 12.0739 16.2509L15.7674 7.87208C15.8087 7.78256 15.8216 7.6825 15.8043 7.58542C15.787 7.48834 15.7403 7.3989 15.6706 7.32917C15.6009 7.25944 15.5114 7.21277 15.4143 7.19547C15.3172 7.17816 15.2172 7.19105 15.1277 7.2324Z" fill="#1DADFF"/>
<path fill-rule="evenodd" clip-rule="evenodd" d="M1.875 11.5C1.875 6.186 6.186 1.875 11.5 1.875C16.814 1.875 21.125 6.186 21.125 11.5C21.125 16.814 16.814 21.125 11.5 21.125C6.186 21.125 1.875 16.814 1.875 11.5ZM11.5 3.875C7.29057 3.875 3.875 7.29057 3.875 11.5C3.875 15.7094 7.29057 19.125 11.5 19.125C15.7094 19.125 19.125 15.7094 19.125 11.5C19.125 7.29057 15.7094 3.875 11.5 3.875Z" fill="#1DADFF"/>
</svg>
