<svg width="18" height="18" viewBox="0 0 18 18" fill="none" xmlns="http://www.w3.org/2000/svg">
<path d="M1.5 9L5.25 12V9.75H12V8.25H5.25V6L1.5 9Z" fill="#1DADFF"/>
<path d="M9.75054 2.24905C8.86368 2.24659 7.98516 2.42013 7.16585 2.75962C6.34654 3.09911 5.60274 3.5978 4.97754 4.2268L6.03804 5.2873C7.02954 4.2958 8.34804 3.74905 9.75054 3.74905C11.153 3.74905 12.4715 4.2958 13.463 5.2873C14.4545 6.2788 15.0013 7.5973 15.0013 8.9998C15.0013 10.4023 14.4545 11.7208 13.463 12.7123C12.4715 13.7038 11.153 14.2505 9.75054 14.2505C8.34804 14.2505 7.02954 13.7038 6.03804 12.7123L4.97754 13.7728C6.25179 15.0478 7.94679 15.7505 9.75054 15.7505C11.5543 15.7505 13.2493 15.0478 14.5235 13.7728C15.7985 12.4985 16.5013 10.8035 16.5013 8.9998C16.5013 7.19605 15.7985 5.50105 14.5235 4.2268C13.8983 3.5978 13.1545 3.09911 12.3352 2.75962C11.5159 2.42013 10.6374 2.24659 9.75054 2.24905Z" fill="#1DADFF"/>
</svg>
