<svg width="18" height="18" viewBox="0 0 18 18" fill="none" xmlns="http://www.w3.org/2000/svg">
<path fill-rule="evenodd" clip-rule="evenodd" d="M9 16.2C12.9764 16.2 16.2 12.9764 16.2 9C16.2 5.02355 12.9764 1.8 9 1.8C5.02355 1.8 1.8 5.02355 1.8 9C1.8 12.9764 5.02355 16.2 9 16.2ZM9 18C13.9706 18 18 13.9706 18 9C18 4.02944 13.9706 0 9 0C4.02944 0 0 4.02944 0 9C0 13.9706 4.02944 18 9 18Z" fill="white"/>
<path fill-rule="evenodd" clip-rule="evenodd" d="M13.7291 6.31655C14.1068 6.71946 14.0864 7.3523 13.6835 7.73003L7.66618 13.3712L4.31557 10.23C3.91266 9.8523 3.89225 9.21946 4.26998 8.81655C4.64771 8.41364 5.28054 8.39322 5.68346 8.77095L7.66618 10.6298L12.3156 6.27095C12.7185 5.89322 13.3513 5.91364 13.7291 6.31655Z" fill="white"/>
</svg>
