<svg width="16" height="16" viewBox="0 0 16 16" fill="none" xmlns="http://www.w3.org/2000/svg">
<g clip-path="url(#clip0)">
<path d="M8.3468 0.623159C8.24625 0.543345 8.1224 0.5 7.9949 0.5C7.8674 0.5 7.74355 0.543345 7.643 0.623159L-0.5 7.08771L0.204367 7.99466L1.2 7.20425V14.3461C1.2006 14.652 1.3202 14.9451 1.53261 15.1614C1.74502 15.3776 2.03294 15.4994 2.33333 15.5H13.6667C13.9671 15.4994 14.255 15.3776 14.4674 15.1614C14.6798 14.9451 14.7994 14.652 14.8 14.3461V7.20945L15.7956 7.99985L16.5 7.09291L8.3468 0.623159ZM9.13333 14.3461H6.86667V9.73065H9.13333V14.3461ZM10.2667 14.3461V9.73065C10.2664 9.42472 10.1469 9.13141 9.93439 8.91508C9.72191 8.69875 9.43382 8.57709 9.13333 8.57678H6.86667C6.56618 8.57709 6.27809 8.69875 6.06561 8.91508C5.85313 9.13141 5.73363 9.42472 5.73333 9.73065V14.3461H2.33333V6.30481L8 1.81049L13.6667 6.31058V14.3461H10.2667Z" fill="black"/>
</g>
<defs>
<clipPath id="clip0">
<rect width="16" height="16" fill="white"/>
</clipPath>
</defs>
</svg>
