<svg width="32" height="32" viewBox="0 0 32 32" fill="none" xmlns="http://www.w3.org/2000/svg">
<path d="M18.9375 30.5H11.9375V20H18.9375V30.5Z" fill="#A6CDFF"/>
<path d="M13.9375 22H16.9375V23H13.9375V22Z" fill="black"/>
<path d="M13.9375 26H14.9375V27H13.9375V26Z" fill="black"/>
<path d="M25.8486 10.3748L17.0393 1.9178C16.4783 1.3788 15.5223 1.3793 14.9618 1.9173L2.46131 13.9183C2.17231 14.1958 2.00881 14.5693 2.00031 14.9688C1.99231 15.3698 2.14031 15.7498 2.41731 16.0373C2.69831 16.3313 3.09331 16.4998 3.50031 16.4998C3.88931 16.4998 4.25831 16.3513 4.53881 16.0823L5.00031 15.6393V30.4998H13.1562V29.4998H6.00031V14.6793L16.0003 5.0788L21.5166 10.3748H22.9606L16.0003 3.6928L3.84631 15.3608C3.65481 15.5443 3.32331 15.5378 3.13881 15.3453C3.04681 15.2493 2.99781 15.1233 3.00031 14.9893C3.00281 14.8538 3.05581 14.7328 3.15381 14.6393L15.6543 2.6383C15.8408 2.4598 16.1593 2.4593 16.3463 2.6388L24.4046 10.3748H25.8486Z" fill="black"/>
<path d="M8.4919 6.11387C8.09501 6.11387 7.72225 5.96008 7.4422 5.6808C7.16226 5.40167 7.00812 5.02989 7.00812 4.63396C7.00812 4.52544 6.92051 4.4375 6.81253 4.4375C6.70449 4.4375 6.61693 4.52544 6.61693 4.63396C6.61693 5.02989 6.46274 5.40167 6.1828 5.6808C5.90275 5.96008 5.52999 6.11387 5.1331 6.11387C5.02506 6.11387 4.9375 6.20181 4.9375 6.31033C4.9375 6.41884 5.02506 6.50678 5.1331 6.50678C5.95124 6.50678 6.61693 7.17263 6.61693 7.99104C6.61693 8.09956 6.70449 8.1875 6.81253 8.1875C6.92051 8.1875 7.00812 8.09956 7.00812 7.99104C7.00812 7.17263 7.67376 6.50678 8.4919 6.50678C8.59994 6.50678 8.6875 6.41884 8.6875 6.31033C8.6875 6.20181 8.59994 6.11387 8.4919 6.11387Z" fill="black"/>
<path d="M24.6792 3.21231C24.1025 3.21231 23.6333 2.75479 23.6333 2.19237C23.6333 2.08616 23.5457 2 23.4375 2C23.3293 2 23.2417 2.08616 23.2417 2.19237C23.2417 2.75479 22.7725 3.21231 22.1958 3.21231C22.0877 3.21231 22 3.29847 22 3.40467C22 3.51092 22.0877 3.59704 22.1958 3.59704C22.7725 3.59704 23.2417 4.05601 23.2417 4.62013C23.2417 4.72634 23.3293 4.8125 23.4375 4.8125C23.5457 4.8125 23.6333 4.72634 23.6333 4.62013C23.6333 4.05601 24.1025 3.59704 24.6792 3.59704C24.7873 3.59704 24.875 3.51092 24.875 3.40467C24.875 3.29847 24.7873 3.21231 24.6792 3.21231Z" fill="black"/>
<path d="M4.19504 3.35331C4.61749 3.35331 4.96121 3.69577 4.96121 4.11666C4.96121 4.22478 5.04852 4.3125 5.15625 4.3125C5.26398 4.3125 5.35129 4.22478 5.35129 4.11666C5.35129 3.69439 5.69501 3.35086 6.11746 3.35086C6.22519 3.35086 6.3125 3.26314 6.3125 3.15503C6.3125 3.04686 6.22519 2.95919 6.11746 2.95919C5.69501 2.95919 5.35129 2.61673 5.35129 2.19584C5.35129 2.08767 5.26398 2 5.15625 2C5.04852 2 4.96121 2.08767 4.96121 2.19584C4.96121 2.61811 4.61749 2.96164 4.19504 2.96164C4.08731 2.96164 4 3.04931 4 3.15747C4 3.26564 4.08731 3.35331 4.19504 3.35331Z" fill="black"/>
<path d="M24.375 20C21.6175 20 19.375 17.7575 19.375 15C19.375 12.2425 21.6175 10 24.375 10C27.1325 10 29.375 12.2425 29.375 15C29.375 17.7575 27.1325 20 24.375 20Z" fill="#A6CDFF"/>
<path fill-rule="evenodd" clip-rule="evenodd" d="M24.375 19.35C26.7774 19.35 28.725 17.4024 28.725 15C28.725 12.5976 26.7774 10.65 24.375 10.65C21.9726 10.65 20.025 12.5976 20.025 15C20.025 17.4024 21.9726 19.35 24.375 19.35ZM24.375 20.4375C27.378 20.4375 29.8125 18.003 29.8125 15C29.8125 11.997 27.378 9.5625 24.375 9.5625C21.372 9.5625 18.9375 11.997 18.9375 15C18.9375 18.003 21.372 20.4375 24.375 20.4375Z" fill="black"/>
<path fill-rule="evenodd" clip-rule="evenodd" d="M27.2321 13.3787C27.4603 13.6222 27.448 14.0045 27.2046 14.2327L23.5691 17.6409L21.5448 15.7431C21.3014 15.5149 21.2891 15.1326 21.5173 14.8892C21.7455 14.6457 22.1278 14.6334 22.3713 14.8616L23.5691 15.9846L26.3782 13.3512C26.6216 13.123 27.0039 13.1353 27.2321 13.3787Z" fill="black"/>
<path d="M25.4375 19.6562V29.5H17.375V30.5H26.4375V19.6562H25.4375Z" fill="black"/>
<path d="M17.8302 14H5.375V15H19.375V14L17.8302 14Z" fill="black"/>
</svg>
