<svg width="32" height="32" viewBox="0 0 32 32" fill="none" xmlns="http://www.w3.org/2000/svg">
<path d="M12.4145 28.171L9.256 19.147C9.406 18.972 9.5 18.748 9.5 18.5V18C9.5 17.1785 8.836 16.511 8.017 16.5015L8.5 2V1.809C8.5 1.0875 7.913 0.5 7.191 0.5C6.989 0.5 6.7865 0.548 6.6055 0.638L5.671 1.1055C4.9485 1.4665 4.5 2.1925 4.5 3.018L4.9815 16.502C4.163 16.512 3.5 17.179 3.5 18V18.5C3.5 18.748 3.594 18.972 3.744 19.147L0.5995 28.1315C0.5335 28.32 0.5 28.5165 0.5 28.716C0.5 29.3905 0.875 29.997 1.478 30.298L3.159 31.139C3.6315 31.375 4.161 31.5 4.69 31.5C4.9295 31.5 5.171 31.4745 5.4075 31.424L11.297 30.1625C11.699 30.0765 12.033 29.829 12.2475 29.5005H31.5V28.5005H12.4855C12.4725 28.388 12.452 28.2775 12.4145 28.171ZM7.3965 22.5L9.2435 29.5795L7 30.0605V22.5H7.3965ZM5.8645 21.5L6.3865 19.5H6.614L7.136 21.5H5.8645ZM4.6795 19.5H5.3525L4.831 21.5H3.9795L4.6795 19.5ZM7.647 19.5H8.32L9.02 21.5H8.1685L7.647 19.5ZM6.118 2L7.0525 1.5325C7.249 1.434 7.5 1.5915 7.5 1.809V1.9835L7.0165 16.5H5.9825L5.5 3C5.5 2.5735 5.737 2.1905 6.118 2ZM4.5 18C4.5 17.724 4.7245 17.5 5 17.5H8C8.2755 17.5 8.5 17.724 8.5 18L8.5005 18.5H4.5V18ZM1.5 28.716C1.5 28.629 1.5145 28.5435 1.543 28.4615L3.6295 22.5H4.57L2.672 29.777L1.925 29.4035C1.663 29.2725 1.5 29.009 1.5 28.716ZM5.1985 30.4465C4.6605 30.561 4.092 30.4875 3.606 30.2445L3.586 30.2345L5.6035 22.5H6V30.2745L5.1985 30.4465ZM11.0875 29.1845L10.222 29.37L8.43 22.5H9.3705L11.471 28.5015C11.49 28.5565 11.5 28.6145 11.5 28.674C11.5 28.9185 11.3265 29.1335 11.0875 29.1845Z" fill="black"/>
<path d="M20.61 13.5C20.85 13.234 21 12.8855 21 12.5C21 11.673 20.327 11 19.5 11C18.673 11 18 11.673 18 12.5C18 12.8855 18.1505 13.234 18.39 13.5H20.61Z" fill="#A6CDFF"/>
<path d="M27.5 9C26.397 9 25.5 8.103 25.5 7C25.5 5.897 26.397 5 27.5 5C28.603 5 29.5 5.897 29.5 7C29.5 8.103 28.603 9 27.5 9Z" fill="#A6CDFF"/>
<path d="M17.0635 9.9555C17.313 8.838 18.3075 8 19.5 8C19.6495 8 19.795 8.016 19.9375 8.0415C19.9765 7.8635 20 7.6825 20 7.5C20 6.1215 18.8785 5 17.5 5C16.1215 5 15 6.1215 15 7.5C15 8.7085 15.8825 9.746 17.0635 9.9555Z" fill="#A6CDFF"/>
<path d="M22.5 6C20.8455 6 19.5 4.6545 19.5 3C19.5 1.3455 20.8455 0 22.5 0C24.1545 0 25.5 1.3455 25.5 3C25.5 4.6545 24.1545 6 22.5 6Z" fill="#A6CDFF"/>
<path fill-rule="evenodd" clip-rule="evenodd" d="M13.625 28.5V16.5C13.0735 16.5 12.625 16.0515 12.625 15.5V13.5C12.625 12.9485 13.0735 12.5 13.625 12.5H13.664C13.8865 10.9575 15.114 9.736 16.6615 9.5305C16.8875 8.0985 18.1305 7 19.625 7C20.6565 7 21.609 7.5385 22.1545 8.387C22.6 8.135 23.106 8 23.625 8C25.124 8 26.3695 9.105 26.5905 10.5435C27.584 10.731 28.368 11.511 28.5705 12.5H28.625C29.1765 12.5 29.625 12.9485 29.625 13.5V15.5C29.625 16.0515 29.1765 16.5 28.625 16.5V23.11L29.3955 23.3025C30.1185 23.483 30.6245 24.13 30.625 24.8755C30.6255 25.3095 30.4565 25.7175 30.15 26.024C29.8435 26.331 29.4355 26.5 29.002 26.5C28.876 26.5 28.7505 26.494 28.625 26.487V28C28.625 28.827 27.952 29.5 27.125 29.5H19.0625V28.5H27.125C27.401 28.5 27.625 28.2755 27.625 28V26.358C27.4635 26.324 27.3025 26.2855 27.1435 26.24C23.305 25.143 20.6245 21.589 20.6245 17.5975L20.625 16.5H14.625V28.5H13.625ZM27.5335 25.3032L27.5334 25.3032C27.4947 25.296 27.4559 25.2889 27.418 25.278C24.007 24.303 21.6245 21.1445 21.6245 17.5975L21.625 16.5H27.625V25.322C27.5948 25.3145 27.5641 25.3088 27.5335 25.3032ZM20.125 14.5C20.125 13.9485 20.5735 13.5 21.125 13.5C21.6765 13.5 22.125 13.9485 22.125 14.5C22.125 15.0515 21.6765 15.5 21.125 15.5C20.5735 15.5 20.125 15.0515 20.125 14.5ZM28.6255 15.5H22.847C23.019 15.2045 23.125 14.866 23.125 14.5C23.125 14.134 23.019 13.7955 22.847 13.5H28.625L28.6255 15.5ZM17.125 10.5H17.625V10C17.625 8.897 18.522 8 19.625 8C20.456 8 21.21 8.5245 21.502 9.305L21.757 9.988L22.3025 9.504C22.6735 9.1745 23.131 9 23.625 9C24.728 9 25.625 9.897 25.625 11V11.5H26.125C26.776 11.5 27.326 11.9195 27.533 12.5H14.6755C14.908 11.3605 15.918 10.5 17.125 10.5ZM13.625 13.5H19.403C19.231 13.7955 19.125 14.134 19.125 14.5C19.125 14.866 19.231 15.2045 19.403 15.5H13.625V13.5ZM29.443 25.3175C29.325 25.435 29.1685 25.5 29.002 25.5C28.9193 25.5 28.8375 25.4923 28.7556 25.4846C28.7121 25.4805 28.6687 25.4764 28.625 25.4735V24.1405L29.1535 24.2725C29.431 24.342 29.6245 24.59 29.625 24.8765C29.625 25.043 29.5605 25.1995 29.443 25.3175Z" fill="black"/>
</svg>
