<svg width="32" height="32" viewBox="0 0 32 32" fill="none" xmlns="http://www.w3.org/2000/svg">
<g clip-path="url(#clip0)">
<path d="M28.2669 24.5332H27.2002V25.5999H28.2669V24.5332Z" fill="black"/>
<path d="M5 4C3.897 4 3 3.103 3 2C3 0.897 3.897 0 5 0C6.103 0 7 0.897 7 2C7 3.103 6.103 4 5 4Z" fill="#A6CDFF"/>
<path d="M1 5C0.4485 5 0 4.5515 0 4C0 3.4485 0.4485 3 1 3C1.5515 3 2 3.4485 2 4C2 4.5515 1.5515 5 1 5Z" fill="#A6CDFF"/>
<path d="M24.4317 30.95C24.1334 30.9824 23.827 30.9995 23.5144 31C22.8274 31.6254 21.9526 32 21 32C18.7909 32 17 29.9853 17 27.5C17 25.0147 18.7909 23 21 23C21.9526 23 22.8274 23.3746 23.5144 24C23.827 24.0005 24.1334 24.0176 24.4317 24.05C25.1265 23.3946 26.0223 23 27 23C29.2091 23 31 25.0147 31 27.5C31 29.9853 29.2091 32 27 32C26.0223 32 25.1265 31.6054 24.4317 30.95Z" fill="#A6CDFF"/>
<path d="M22.9334 24.5332H21.8667V25.5999H22.9334V24.5332Z" fill="black"/>
<path d="M26.1331 25.0669H25.0664V26.1336H26.1331V25.0669Z" fill="black"/>
<path d="M20.8001 25.0669H19.7334V26.1336H20.8001V25.0669Z" fill="black"/>
<path fill-rule="evenodd" clip-rule="evenodd" d="M6.39116 12.2H7.55436L5.9981 9.37547L7.97943 8.58293L9.88023 12.2H11.0434L7.8237 5.5488C7.48503 4.7696 6.71703 4.26613 5.86743 4.26613C5.57143 4.26613 5.28503 4.32587 5.01676 4.44373C4.49516 4.6704 4.0925 5.088 3.88343 5.61867C3.67436 6.14933 3.68396 6.72907 3.91116 7.2512L6.39116 12.2ZM5.4429 5.4208C5.18156 5.53493 4.9805 5.74347 4.87596 6.00907C4.7709 6.27467 4.77623 6.56427 4.88983 6.82453L5.57303 8.39627L7.55436 7.60373L6.84556 5.97387C6.6173 5.44907 5.9613 5.19307 5.4429 5.4208Z" fill="black"/>
<path fill-rule="evenodd" clip-rule="evenodd" d="M14.4008 12.2H15.4674V9.6H16.5341V12.2H17.6008V9.24427L18.4541 8.10667C19.9677 6.08907 20.8008 3.5888 20.8008 1.06667C20.8008 0.4784 20.3224 0 19.7341 0H12.2674C11.6792 0 11.2008 0.4784 11.2008 1.06667C11.2008 3.5888 12.0344 6.08907 13.5474 8.10667L14.4008 9.24427V12.2ZM15.2008 8.53333H16.8008L17.6008 7.46667H14.4008L15.2008 8.53333ZM16.5341 1.06667V6.4H16.6786C17.2344 4.67093 17.54 2.88053 17.5901 1.06667H16.5341ZM15.3229 6.4H15.4674V1.06667H14.4114C14.4616 2.88053 14.7672 4.67093 15.3229 6.4ZM17.7954 6.4H18.2936C19.2237 4.78507 19.7341 2.9344 19.7341 1.06667H18.6568C18.6093 2.87787 18.3202 4.66667 17.7954 6.4ZM14.2061 6.4C13.6808 4.66667 13.3922 2.87787 13.3448 1.06667H12.2674C12.2674 2.9344 12.7778 4.78507 13.708 6.4H14.2061Z" fill="black"/>
<path fill-rule="evenodd" clip-rule="evenodd" d="M1.59974 11.2002C1.30521 11.2002 1.06641 11.439 1.06641 11.7335V13.8669C1.06641 14.1614 1.30521 14.4002 1.59974 14.4002H2.73094L4.80401 30.4685C4.83834 30.7345 5.06487 30.9336 5.33307 30.9335H17.8877C18.4926 31.6115 19.3578 31.9995 20.2664 32.0002H21.1016C21.6873 31.9997 22.2649 31.8633 22.7891 31.6018C23.5517 31.2227 24.4478 31.2227 25.2104 31.6018C25.7345 31.8633 26.3121 31.9997 26.8979 32.0002H27.7331C29.4997 31.9985 30.9313 30.5668 30.9331 28.8002V25.6002C30.9313 23.8336 29.4997 22.4019 27.7331 22.4002H26.8979C26.3121 22.4007 25.7345 22.5371 25.2104 22.7986C24.4478 23.1777 23.5517 23.1777 22.7891 22.7986C22.4849 22.6493 22.162 22.5417 21.8291 22.4786L22.8685 14.4002H23.9997C24.2943 14.4002 24.5331 14.1614 24.5331 13.8669V11.7335C24.5331 11.439 24.2943 11.2002 23.9997 11.2002H21.8664H20.7997H14.3997H13.3331H12.2664H11.1997H4.79974H3.73307H1.59974ZM23.4664 13.3335V12.2669H15.9997V13.3335H23.4664ZM14.9331 12.2669H13.8664H7.46641V24.0002C7.46641 24.5893 7.94394 25.0669 8.53307 25.0669V20.2669H9.59974V25.0669H10.6664V20.2669H11.7331V25.0669H12.7997V20.2669H13.8664V25.0669C14.4555 25.0669 14.9331 24.5893 14.9331 24.0002V18.6669C14.9333 18.5862 14.9518 18.5066 14.9872 18.4341C15.1165 18.1694 15.4359 18.0597 15.7005 18.189L17.8659 19.2717L17.8673 19.2723C18.1752 19.4259 18.5492 19.3007 18.7027 18.9927C18.7921 18.8295 18.8113 18.6371 18.756 18.4594C18.7023 18.2939 18.5841 18.1571 18.428 18.0802L15.228 16.4802C15.0463 16.3894 14.9319 16.2033 14.9331 16.0002V12.2669ZM2.13307 12.2669V13.3335H6.39974V12.2669H2.13307ZM17.0664 28.8002V25.6002C17.0681 23.8336 18.4998 22.4019 20.2664 22.4002H20.7608L21.7933 14.4002H15.9997V15.6706L18.908 17.1245C19.3185 17.3281 19.6299 17.6883 19.772 18.1239C19.9161 18.5594 19.881 19.0344 19.6744 19.4439L19.6693 19.4544C19.2538 20.2962 18.2346 20.6418 17.3928 20.2263L15.9997 19.5298V24.0002C15.9997 25.1784 15.0446 26.1335 13.8664 26.1335H8.53307C7.35487 26.1335 6.39974 25.1784 6.39974 24.0002V14.4002H3.80614L5.80187 29.8669H17.2531C17.1305 29.5245 17.0673 29.1638 17.0664 28.8002ZM27.7331 30.9335C28.9113 30.9335 29.8664 29.9784 29.8664 28.8002V27.9789C29.2815 28.5073 28.5213 28.8 27.7331 28.8002H26.8979C26.3121 28.7997 25.7345 28.6633 25.2104 28.4018C24.4478 28.0227 23.5517 28.0227 22.7891 28.4018C22.2649 28.6633 21.6873 28.7997 21.1016 28.8002H20.2664C19.4781 28.8 18.7179 28.5073 18.1331 27.9789V28.8002C18.1331 29.9784 19.0882 30.9335 20.2664 30.9335H21.1016C21.5217 30.9329 21.9359 30.8351 22.3117 30.6477C23.3751 30.1193 24.6244 30.1193 25.6877 30.6477C26.0636 30.8351 26.4778 30.9329 26.8979 30.9335H27.7331ZM26.8979 27.7335H27.7331C28.9113 27.7335 29.8664 26.7784 29.8664 25.6002C29.8664 24.422 28.9113 23.4669 27.7331 23.4669H26.8979C26.4778 23.4675 26.0636 23.5653 25.6877 23.7527C24.6243 24.2807 23.3751 24.2807 22.3117 23.7527C21.9359 23.5653 21.5217 23.4675 21.1016 23.4669H20.2664C19.0882 23.4669 18.1331 24.422 18.1331 25.6002C18.1331 26.7784 19.0882 27.7335 20.2664 27.7335H21.1016C21.5217 27.7329 21.9359 27.6351 22.3117 27.4477C23.3751 26.9193 24.6244 26.9193 25.6877 27.4477C26.0636 27.6351 26.4778 27.7329 26.8979 27.7335Z" fill="black"/>
</g>
<defs>
<clipPath id="clip0">
<rect width="32" height="32" fill="white"/>
</clipPath>
</defs>
</svg>
