<svg width="23" height="23" viewBox="0 0 23 23" fill="none" xmlns="http://www.w3.org/2000/svg">
<g opacity="0.6">
<g opacity="0.6">
<path opacity="0.6" d="M12.4371 4.53213C12.4371 5.1569 11.9303 5.66328 11.306 5.66328C10.6812 5.66328 10.1748 5.1569 10.1748 4.53213V1.13115C10.1748 0.506377 10.6812 0 11.306 0C11.9303 0 12.4371 0.506377 12.4371 1.13115V4.53213Z" fill="white"/>
</g>
</g>
<path d="M12.4371 21.5014C12.4371 22.1258 11.9303 22.6325 11.306 22.6325C10.6812 22.6325 10.1748 22.1258 10.1748 21.5014V18.1004C10.1748 17.4752 10.6812 16.9692 11.306 16.9692C11.9303 16.9692 12.4371 17.4752 12.4371 18.1004V21.5014Z" fill="white"/>
<g opacity="0.35">
<g opacity="0.35">
<path opacity="0.35" d="M4.53251 10.186C5.15728 10.186 5.66366 10.6928 5.66366 11.3172C5.66366 11.9416 5.15728 12.4483 4.53251 12.4483H1.13115C0.506754 12.4483 0 11.9416 0 11.3172C0 10.6928 0.506754 10.186 1.13115 10.186H4.53251Z" fill="white"/>
</g>
</g>
<g opacity="0.8">
<g opacity="0.8">
<path opacity="0.8" d="M21.4901 10.186C22.1145 10.186 22.6213 10.6928 22.6213 11.3172C22.6213 11.9416 22.1145 12.4483 21.4901 12.4483H18.0892C17.464 12.4483 16.958 11.9416 16.958 11.3172C16.958 10.6928 17.464 10.186 18.0892 10.186H21.4901Z" fill="white"/>
</g>
</g>
<g opacity="0.3">
<g opacity="0.3">
<path opacity="0.3" d="M4.88081 13.7298C5.42188 13.4168 6.11376 13.6023 6.42596 14.143C6.73853 14.6841 6.5534 15.3756 6.01234 15.6885L3.06721 17.3898C2.52652 17.702 1.83463 17.5172 1.52206 16.9758C1.20949 16.4355 1.39462 15.7432 1.93568 15.431L4.88081 13.7298Z" fill="white"/>
</g>
</g>
<g opacity="0.7">
<g opacity="0.7">
<path opacity="0.7" d="M19.5699 5.23916C20.111 4.92697 20.8029 5.11172 21.1154 5.65316C21.428 6.19348 21.2425 6.88574 20.7018 7.19793L17.7567 8.89956C17.2156 9.21213 16.5241 9.02662 16.2115 8.48593C15.899 7.94487 16.0841 7.25336 16.6248 6.94079L19.5699 5.23916Z" fill="white"/>
</g>
</g>
<g opacity="0.9">
<g opacity="0.9">
<path opacity="0.9" d="M13.7183 17.7565C13.4058 17.2158 13.5909 16.5235 14.132 16.2113C14.6727 15.8991 15.3645 16.0839 15.6771 16.6253L17.3784 19.5705C17.6909 20.1108 17.5058 20.803 16.9647 21.1152C16.4241 21.4282 15.7322 21.2427 15.4196 20.702L13.7183 17.7565Z" fill="white"/>
</g>
</g>
<g opacity="0.5">
<g opacity="0.5">
<path opacity="0.5" d="M5.25049 3.06762C4.93792 2.52617 5.12343 1.83467 5.66412 1.52171C6.20518 1.20952 6.89707 1.39503 7.20926 1.93571L8.91089 4.88085C9.22346 5.42191 9.03795 6.11342 8.49726 6.42562C7.9562 6.73857 7.26431 6.55306 6.95212 6.01275L5.25049 3.06762Z" fill="white"/>
</g>
</g>
<g opacity="0.2">
<g opacity="0.2">
<path opacity="0.2" d="M6.94798 16.6265C7.2598 16.085 7.95168 15.8988 8.49237 16.2109C9.03381 16.5228 9.2197 17.2143 8.90826 17.7553L7.2104 20.7027C6.89859 21.2438 6.2067 21.4301 5.66563 21.1179C5.12419 20.8064 4.93793 20.1149 5.24975 19.5735L6.94798 16.6265Z" fill="white"/>
</g>
</g>
<g opacity="0.65">
<g opacity="0.65">
<path opacity="0.65" d="M15.4154 1.92577C15.7272 1.38433 16.4187 1.19807 16.9605 1.51027C17.5016 1.82209 17.6871 2.51397 17.3757 3.05466L15.6782 6.00205C15.366 6.54349 14.6745 6.72938 14.1334 6.41718C13.592 6.10574 13.4057 5.41423 13.7175 4.87279L15.4154 1.92577Z" fill="white"/>
</g>
</g>
<g opacity="0.85">
<g opacity="0.85">
<path opacity="0.85" d="M16.6263 15.6777C16.0848 15.3655 15.899 14.674 16.2108 14.1326C16.523 13.5915 17.2145 13.406 17.7556 13.7175L20.7026 15.4149C21.244 15.7271 21.4299 16.4186 21.1181 16.9597C20.8063 17.5012 20.1147 17.6874 19.5733 17.376L16.6263 15.6777Z" fill="white"/>
</g>
</g>
<g opacity="0.45">
<g opacity="0.45">
<path opacity="0.45" d="M1.93676 7.20997C1.39569 6.89815 1.20943 6.20664 1.52125 5.66482C1.83307 5.12376 2.52495 4.93825 3.06602 5.24969L6.01341 6.94717C6.55485 7.25936 6.74036 7.95087 6.42854 8.49194C6.11672 9.03338 5.42521 9.21964 4.88377 8.90782L1.93676 7.20997Z" fill="white"/>
</g>
</g>
</svg>
